# File created by Blade
# Date/Time:  Wed Jan 21 16:27:40 2015
# Frame Rate: 120.000 fps
#------------------------------------------------------
:FULLY-SPECIFIED
:DEGREES
1887
root 21.504424 35.526788 -18.411980 -182.652697 0.413896 -178.186679
Spine 1.535277 -0.608664 0.989451
Head 0.912156 -1.096104 -0.246306
LeftShoulder -3.600043 -23.926292 -4.114792
LeftArm 4.484971 24.516826 -64.650246
LeftForeArm 10.108594 -0.000000 1.951869
LeftHand -2.642351 0.000000 -6.041472
LeftHandThumb1 -26.253704 0.000000 33.147579
RightShoulder -1.475600 -12.876420 5.312726
RightArm 32.043421 -13.667703 54.832823
RightForeArm -28.871513 0.000000 14.453847
RightHand -1.145798 -0.000000 4.278455
RightHandThumb1 -24.326973 -0.000000 -32.862282
LeftUpLeg 4.690664 10.296693 10.898928
LeftLeg 0.265433 -0.000000 -0.000000
LeftFoot -15.239355 27.173186 -13.390541
LeftToeBase 26.128073 -0.000000 -0.000000
RightUpLeg -0.539322 -3.537246 0.441066
RightLeg 8.656911 -0.000000 -0.000000
RightFoot -23.357240 -27.145330 14.742007
RightToeBase 21.985726 -0.000000 -0.000000
1888
root 21.441925 35.503589 -18.493496 -182.596616 0.499276 -177.775969
Spine 1.031966 -0.742108 1.637431
Head 1.096452 -1.029924 -0.389929
LeftShoulder -3.913809 -23.597165 -4.030472
LeftArm 3.944858 24.628033 -63.366559
LeftForeArm 9.382794 -0.000000 1.609370
LeftHand -2.836623 -0.000000 -6.840945
LeftHandThumb1 -26.253704 0.000000 33.147579
RightShoulder -1.821504 -13.282250 5.355010
RightArm 31.310266 -12.777397 53.752256
RightForeArm -29.143255 0.000000 13.368108
RightHand -1.040390 -0.000000 4.786425
RightHandThumb1 -24.326973 -0.000000 -32.862282
LeftUpLeg 5.072273 11.071417 11.270221
LeftLeg -0.289768 -0.000000 0.000000
LeftFoot -15.578103 26.818171 -13.057063
LeftToeBase 26.616898 -0.000000 -0.000000
RightUpLeg -0.147740 -3.492861 0.718472
RightLeg 8.067743 -0.000000 -0.000000
RightFoot -23.243414 -27.010772 14.802861
RightToeBase 21.864652 -0.000000 -0.000000
1889
root 21.378296 35.481407 -18.572696 -182.529973 0.460383 -177.394193
Spine 0.523349 -0.960220 2.212701
Head 1.300995 -0.955976 -0.448998
LeftShoulder -4.169316 -23.322848 -3.899946
LeftArm 3.358858 24.070556 -62.161089
LeftForeArm 9.553125 -0.000000 1.212910
LeftHand -3.179676 0.000000 -7.341224
LeftHandThumb1 -26.253704 0.000000 33.147579
RightShoulder -2.208348 -13.787086 5.454828
RightArm 30.684279 -11.733223 52.616811
RightForeArm -29.278569 -0.000000 12.322350
RightHand -1.210078 -0.000000 4.999765
RightHandThumb1 -24.326973 -0.000000 -32.862282
LeftUpLeg 5.351930 11.579550 11.583843
LeftLeg -0.742199 -0.000000 0.000000
LeftFoot -15.968401 26.589508 -12.798363
LeftToeBase 27.086694 -0.000000 -0.000000
RightUpLeg 0.228255 -3.664053 0.947834
RightLeg 7.507303 -0.000000 -0.000000
RightFoot -23.145045 -26.773449 14.866794
RightToeBase 21.839777 -0.000000 -0.000000
1890
root 21.315790 35.460394 -18.656370 -182.505621 0.459940 -177.032920
Spine 0.078497 -1.080302 2.734383
Head 1.478100 -0.948546 -0.494993
LeftShoulder -4.364044 -23.142939 -3.711774
LeftArm 2.687859 23.546378 -60.986685
LeftForeArm 9.445336 -0.000000 0.807546
LeftHand -3.317705 -0.000000 -7.305224
LeftHandThumb1 -26.253704 0.000000 33.147579
RightShoulder -2.662425 -14.266085 5.597447
RightArm 30.092874 -10.981199 51.235706
RightForeArm -29.021462 -0.000000 11.294505
RightHand -1.200391 -0.000000 5.388837
RightHandThumb1 -24.326973 -0.000000 -32.862282
LeftUpLeg 5.726115 12.055417 11.900832
LeftLeg -1.249225 -0.000000 0.000000
LeftFoot -16.319833 26.345636 -12.559415
LeftToeBase 27.560077 -0.000000 -0.000000
RightUpLeg 0.658593 -3.726126 1.159205
RightLeg 6.929079 -0.000000 -0.000000
RightFoot -23.026056 -26.522702 15.040631
RightToeBase 21.537990 -0.000000 -0.000000
1891
root 21.252115 35.439253 -18.729265 -182.398405 0.409807 -176.686661
Spine -0.445589 -1.275093 3.268581
Head 1.594330 -0.915046 -0.533312
LeftShoulder -4.571784 -22.943044 -3.509289
LeftArm 2.051944 22.920021 -59.732296
LeftForeArm 9.362820 -0.000000 0.403697
LeftHand -3.386100 -0.000000 -7.797084
LeftHandThumb1 -26.253704 0.000000 33.147579
RightShoulder -2.964175 -14.457419 5.590593
RightArm 29.117209 -9.389450 50.616067
RightForeArm -29.706359 -0.000000 10.230946
RightHand -1.273615 -0.000000 5.909023
RightHandThumb1 -24.326973 -0.000000 -32.862282
LeftUpLeg 5.975797 12.355314 12.169446
LeftLeg -1.732424 -0.000000 0.000000
LeftFoot -16.674378 26.167394 -12.347582
LeftToeBase 28.033435 -0.000000 -0.000000
RightUpLeg 0.972059 -3.827989 1.363343
RightLeg 6.394536 -0.000000 -0.000000
RightFoot -22.935551 -26.319778 15.136196
RightToeBase 21.239967 -0.000000 -0.000000
1892
root 21.188011 35.417677 -18.798712 -182.305262 0.310636 -176.342949
Spine -0.916695 -1.455411 3.785446
Head 1.701249 -0.907960 -0.607950
LeftShoulder -4.766577 -22.721157 -3.262391
LeftArm 1.484229 22.466431 -58.487101
LeftForeArm 9.156298 0.000000 0.096773
LeftHand -3.706346 -0.000000 -8.481124
LeftHandThumb1 -26.253704 0.000000 33.147579
RightShoulder -3.221633 -14.341798 5.513449
RightArm 27.793393 -8.110698 49.911146
RightForeArm -30.089073 -0.000000 9.419658
RightHand -1.387359 -0.000000 6.243958
RightHandThumb1 -24.326973 -0.000000 -32.862282
LeftUpLeg 6.198333 12.503248 12.440678
LeftLeg -2.161443 -0.000000 0.000000
LeftFoot -17.045448 25.957214 -12.129014
LeftToeBase 28.505034 -0.000000 -0.000000
RightUpLeg 1.292356 -3.854563 1.575162
RightLeg 5.878281 -0.000000 -0.000000
RightFoot -22.889767 -26.224797 15.201494
RightToeBase 21.317755 -0.000000 -0.000000
1893
root 21.119200 35.396976 -18.874142 -182.237481 0.167272 -176.019236
Spine -1.370620 -1.702065 4.299385
Head 1.759218 -0.899012 -0.666851
LeftShoulder -4.959801 -22.538140 -3.009343
LeftArm 0.882846 21.560707 -57.220136
LeftForeArm 9.425232 -0.000000 -0.237296
LeftHand -3.702520 -0.000000 -8.442207
LeftHandThumb1 -26.253704 0.000000 33.147579
RightShoulder -3.445351 -14.281050 5.378004
RightArm 26.470364 -6.802065 49.159464
RightForeArm -30.208006 -0.000000 8.902770
RightHand -1.768710 -0.000000 6.469267
RightHandThumb1 -24.326973 -0.000000 -32.862282
LeftUpLeg 6.449072 12.571412 12.689536
LeftLeg -2.602094 -0.000000 0.000000
LeftFoot -17.422769 25.745015 -11.985381
LeftToeBase 28.874276 -0.000000 -0.000000
RightUpLeg 1.670774 -3.882832 1.747670
RightLeg 5.322848 -0.000000 -0.000000
RightFoot -22.821426 -26.045096 15.394174
RightToeBase 21.132247 -0.000000 -0.000000
1894
root 21.056742 35.375796 -18.952508 -182.118440 -0.102406 -175.670756
Spine -1.905391 -1.940642 4.800856
Head 1.850528 -1.042546 -0.686236
LeftShoulder -5.076266 -22.320819 -2.689747
LeftArm 0.285796 20.635767 -55.982861
LeftForeArm 9.610320 -0.000000 -0.479543
LeftHand -3.828961 -0.000000 -9.011718
LeftHandThumb1 -26.253704 0.000000 33.147579
RightShoulder -3.874433 -14.291086 5.294880
RightArm 25.300556 -5.097563 48.465859
RightForeArm -30.353104 -0.000000 8.320558
RightHand -1.761942 -0.000000 7.115768
RightHandThumb1 -24.326973 -0.000000 -32.862282
LeftUpLeg 6.591933 12.430738 12.949585
LeftLeg -2.992410 -0.000000 0.000000
LeftFoot -17.828050 25.540681 -11.852413
LeftToeBase 29.335931 -0.000000 -0.000000
RightUpLeg 2.038268 -4.049084 1.969178
RightLeg 4.702536 -0.000000 -0.000000
RightFoot -22.728089 -25.925898 15.507163
RightToeBase 20.978746 -0.000000 -0.000000
1895
root 20.991166 35.353217 -19.000087 -181.862081 -0.224941 -175.390272
Spine -2.501811 -2.039035 5.215034
Head 1.858854 -1.120011 -0.654318
LeftShoulder -5.193124 -22.197281 -2.350411
LeftArm -0.339628 19.933917 -54.683608
LeftForeArm 9.532121 -0.000000 -0.585495
LeftHand -4.074100 -0.000000 -9.113189
LeftHandThumb1 -26.253704 0.000000 33.147579
RightShoulder -4.271634 -14.396913 5.239623
RightArm 24.231639 -3.311849 47.651552
RightForeArm -30.324904 -0.000000 8.041597
RightHand -2.031616 0.000000 8.051867
RightHandThumb1 -24.326973 -0.000000 -32.862282
LeftUpLeg 6.537851 12.427084 13.112866
LeftLeg -3.271189 -0.000000 0.000000
LeftFoot -18.197706 25.382618 -11.615593
LeftToeBase 29.730564 -0.000000 -0.000000
RightUpLeg 2.113401 -3.825176 2.160235
RightLeg 4.269948 -0.000000 -0.000000
RightFoot -22.706198 -26.058731 15.618992
RightToeBase 20.609275 -0.000000 -0.000000
1896
root 20.923543 35.332838 -19.047445 -181.613269 -0.405787 -175.155652
Spine -3.083883 -2.181995 5.559265
Head 1.864606 -1.250859 -0.560327
LeftShoulder -5.317074 -22.057317 -1.977094
LeftArm -0.909973 19.136177 -53.352236
LeftForeArm 9.527484 0.000000 -0.666883
LeftHand -4.232271 -0.000000 -9.324483
LeftHandThumb1 -26.253704 0.000000 33.147579
RightShoulder -4.664473 -14.505838 5.162863
RightArm 23.114416 -1.650014 46.790878
RightForeArm -30.231563 -0.000000 8.014045
RightHand -2.501561 0.000000 8.812784
RightHandThumb1 -24.326973 -0.000000 -32.862282
LeftUpLeg 6.468420 12.311867 13.220943
LeftLeg -3.548809 -0.000000 0.000000
LeftFoot -18.424374 25.306749 -11.220714
LeftToeBase 30.048770 -0.000000 -0.000000
RightUpLeg 2.227189 -3.628554 2.306308
RightLeg 3.772587 -0.000000 -0.000000
RightFoot -22.684992 -26.255119 15.750721
RightToeBase 20.435987 -0.000000 -0.000000
1897
root 20.854246 35.317953 -19.105919 -181.441528 -0.587035 -175.007312
Spine -3.571149 -2.268249 5.757940
Head 1.819458 -1.405020 -0.384649
LeftShoulder -5.432015 -21.933089 -1.602760
LeftArm -1.415435 18.319676 -51.921576
LeftForeArm 9.466917 -0.000000 -0.672996
LeftHand -4.299251 -0.000000 -9.404429
LeftHandThumb1 -26.253704 0.000000 33.147579
RightShoulder -5.135174 -14.631851 5.178310
RightArm 22.030588 0.119252 45.871310
RightForeArm -30.276187 -0.000000 8.077055
RightHand -2.594399 -0.000000 9.521473
RightHandThumb1 -24.326973 -0.000000 -32.862282
LeftUpLeg 6.547153 12.183525 13.247601
LeftLeg -3.953499 -0.000000 0.000000
LeftFoot -18.446852 25.337555 -10.745874
LeftToeBase 30.260947 -0.000000 -0.000000
RightUpLeg 2.433739 -3.505985 2.355585
RightLeg 3.276973 -0.000000 -0.000000
RightFoot -22.653545 -26.408291 15.887551
RightToeBase 20.315340 -0.000000 -0.000000
1898
root 20.781361 35.309205 -19.167865 -181.328895 -0.752956 -174.964147
Spine -3.979450 -2.320650 5.804272
Head 1.751136 -1.605857 -0.163330
LeftShoulder -5.545115 -21.825545 -1.224260
LeftArm -1.900773 18.202264 -50.447785
LeftForeArm 8.739792 -0.000000 -0.551431
LeftHand -4.569855 -0.000000 -9.391094
LeftHandThumb1 -26.253704 0.000000 33.147579
RightShoulder -5.668524 -14.797510 5.275710
RightArm 21.062428 1.817919 44.819951
RightForeArm -29.924932 0.000000 8.114107
RightHand -2.710947 -0.000000 9.997424
RightHandThumb1 -24.326973 -0.000000 -32.862282
LeftUpLeg 6.729379 12.036907 13.166637
LeftLeg -4.426270 -0.000000 0.000000
LeftFoot -18.369088 25.387899 -10.380067
LeftToeBase 30.475074 -0.000000 -0.000000
RightUpLeg 2.702170 -3.384671 2.292618
RightLeg 2.780149 -0.000000 -0.000000
RightFoot -22.632753 -26.576268 16.025270
RightToeBase 20.228080 -0.000000 -0.000000
1899
root 20.704826 35.305837 -19.229735 -181.257159 -0.879206 -175.030157
Spine -4.284412 -2.304116 5.690497
Head 1.587742 -1.835975 0.133899
LeftShoulder -5.638949 -21.834519 -0.778095
LeftArm -2.341388 17.240998 -48.950403
LeftForeArm 8.738663 -0.000000 -0.586241
LeftHand -4.684935 0.000000 -9.491976
LeftHandThumb1 -26.253704 0.000000 33.147579
RightShoulder -6.293299 -14.926184 5.407200
RightArm 20.189395 3.572233 43.781400
RightForeArm -29.833510 0.000000 8.282516
RightHand -2.881574 -0.000000 10.541521
RightHandThumb1 -24.326973 -0.000000 -32.862282
LeftUpLeg 7.004960 11.829933 12.969685
LeftLeg -4.962716 -0.000000 0.000000
LeftFoot -18.218452 25.476535 -10.242044
LeftToeBase 30.460868 -0.000000 -0.000000
RightUpLeg 2.990367 -3.347450 2.109195
RightLeg 2.314320 -0.000000 -0.000000
RightFoot -22.561886 -26.644950 16.212807
RightToeBase 19.919153 -0.000000 -0.000000
